<?xml version="1.0" encoding="utf-8"?>
<!-- Generator: Adobe Illustrator 23.0.3, SVG Export Plug-In . SVG Version: 6.00 Build 0)  -->
<svg version="1.1" id="Camada_1" xmlns="http://www.w3.org/2000/svg" xmlns:xlink="http://www.w3.org/1999/xlink" x="0px" y="0px"
	 viewBox="0 0 425.2 425.2" style="enable-background:new 0 0 425.2 425.2;" xml:space="preserve">
<style type="text/css">
	.st0{
      fill:#008d36;
    }
</style>
<g>
	<path class="st0" d="M327.01,35.75H170.74c-10.58,0-19.19,8.61-19.19,19.18v1.75H98.18C87.6,56.68,79,65.28,79,75.86v31.05
		c0,2.89,2.34,5.23,5.23,5.23c2.89,0,5.23-2.34,5.23-5.23V75.86c0-4.81,3.91-8.72,8.72-8.72h53.37v14.65h-42.21
		c-2.89,0-5.23,2.34-5.23,5.23v249.76c0,2.89,2.34,5.23,5.23,5.23h63.11c2.89,0,5.23-2.34,5.23-5.23c0-2.89-2.34-5.23-5.23-5.23
		h-57.88V92.26h36.97v181.73c0,10.58,8.61,19.19,19.19,19.19h123.13v38.37h-96.93c-2.89,0-5.23,2.34-5.23,5.23s2.34,5.23,5.23,5.23
		h102.16c2.89,0,5.23-2.34,5.23-5.23v-43.6h14.65v77.09c0,4.81-3.91,8.72-8.72,8.72H98.18c-4.81,0-8.72-3.91-8.72-8.72V131.39
		c0-2.89-2.34-5.23-5.23-5.23c-2.89,0-5.23,2.34-5.23,5.23v238.88c0,10.58,8.61,19.18,19.18,19.18h212.09
		c10.58,0,19.18-8.61,19.18-19.18v-77.25c9.43-1.2,16.74-9.27,16.74-19.02V131.32c0-2.89-2.34-5.23-5.23-5.23s-5.23,2.34-5.23,5.23
		v142.67c0,4.81-3.91,8.72-8.72,8.72H170.74c-4.81,0-8.72-3.91-8.72-8.72V81.09h173.71v25.9c0,2.89,2.34,5.23,5.23,5.23
		s5.23-2.34,5.23-5.23V54.93C346.2,44.35,337.59,35.75,327.01,35.75z M162.02,70.63v-15.7c0-4.81,3.91-8.72,8.72-8.72h156.27
		c4.81,0,8.72,3.91,8.72,8.72v15.7H162.02z"/>
	<path class="st0" d="M177.02,148.76h47.44c2.89,0,5.23-2.34,5.23-5.23V96.09c0-2.89-2.34-5.23-5.23-5.23h-47.44
		c-2.89,0-5.23,2.35-5.23,5.23v47.44C171.79,146.42,174.13,148.76,177.02,148.76z M182.25,101.32h36.97v36.98h-36.97V101.32z"/>
	<path class="st0" d="M317.24,92.95h-69.76c-2.89,0-5.23,2.34-5.23,5.23c0,2.89,2.34,5.23,5.23,5.23h69.76
		c2.89,0,5.23-2.34,5.23-5.23C322.48,95.29,320.13,92.95,317.24,92.95z"/>
	<path class="st0" d="M317.24,115.97h-69.76c-2.89,0-5.23,2.34-5.23,5.23s2.34,5.23,5.23,5.23h69.76c2.89,0,5.23-2.34,5.23-5.23
		S320.13,115.97,317.24,115.97z"/>
	<path class="st0" d="M317.24,138.3h-69.76c-2.89,0-5.23,2.34-5.23,5.23s2.34,5.23,5.23,5.23h69.76c2.89,0,5.23-2.34,5.23-5.23
		S320.13,138.3,317.24,138.3z"/>
	<path class="st0" d="M317.24,162.72H177.02c-2.89,0-5.23,2.34-5.23,5.23c0,2.89,2.34,5.23,5.23,5.23h140.23
		c2.89,0,5.23-2.34,5.23-5.23C322.48,165.06,320.13,162.72,317.24,162.72z"/>
	<path class="st0" d="M317.24,186.44H177.02c-2.89,0-5.23,2.34-5.23,5.23c0,2.89,2.34,5.23,5.23,5.23h140.23
		c2.89,0,5.23-2.34,5.23-5.23C322.48,188.78,320.13,186.44,317.24,186.44z"/>
	<path class="st0" d="M317.24,210.16H177.02c-2.89,0-5.23,2.34-5.23,5.23s2.34,5.23,5.23,5.23h140.23c2.89,0,5.23-2.34,5.23-5.23
		S320.13,210.16,317.24,210.16z"/>
</g>
</svg>
