<?xml version="1.0" encoding="utf-8"?>
<!-- Generator: Adobe Illustrator 23.0.3, SVG Export Plug-In . SVG Version: 6.00 Build 0)  -->
<svg version="1.1" id="Camada_1" xmlns="http://www.w3.org/2000/svg" xmlns:xlink="http://www.w3.org/1999/xlink" x="0px" y="0px"
	 viewBox="0 0 425.2 425.2" style="enable-background:new 0 0 425.2 425.2;" xml:space="preserve">
   <style type="text/css">
	.st0{
      fill:#008d36;
    }
</style>
<path class="st0" d="M415.17,178.56L215.09,89.1c-1.59-0.71-3.39-0.71-4.98,0l-81.12,36.27c-3.07,1.37-4.45,4.98-3.08,8.06
	c1.37,3.08,4.98,4.45,8.06,3.08l78.62-35.16l71.98,32.18v44.93c-38.2-13.97-70.36-15.03-71.81-15.07c-0.11,0-0.23,0-0.34,0
	c-1.55,0.04-38.44,1.26-80.21,18.32c-16.66,6.8-31.89,15.27-45.25,25.17c-1,0.74-1.73,1.76-2.13,2.91l-57.38-25.66l80.44-35.97
	c3.08-1.37,4.45-4.98,3.08-8.06c-1.37-3.08-4.98-4.45-8.06-3.08l-92.89,41.54c-2.2,0.98-3.61,3.16-3.61,5.57
	c0,2.41,1.41,4.59,3.61,5.57L84.5,223v29.21c0,3.37,2.73,6.1,6.1,6.1c3.37,0,6.1-2.73,6.1-6.1v-33.04c0,0,0-0.01,0-0.01v-4.28
	c11.94-8.53,25.43-15.88,40.13-21.88c38.23-15.61,73.05-17.3,75.77-17.41c2.66,0.1,35.19,1.66,71.97,15.9v60.62
	c-8.92,2.64-15.45,10.9-15.45,20.67c0,8.97,5.51,16.68,13.33,19.92l-4.27,11.23c-27.84,4.79-49.88,11.39-65.59,19.65
	c-36.19-19.01-96.81-24.39-115.9-25.65v-17.11c0-3.37-2.73-6.1-6.1-6.1c-3.37,0-6.1,2.73-6.1,6.1v22.87c0,3.26,2.57,5.95,5.83,6.09
	c0.8,0.03,80.08,3.74,119.25,26.05c0.93,0.53,1.98,0.8,3.02,0.8c1.04,0,2.08-0.27,3.02-0.8c13.17-7.51,32.92-13.87,57.51-18.59
	l-3.61,9.49c-0.71,1.88-0.46,3.98,0.68,5.63c1.14,1.65,3.02,2.64,5.02,2.64h30.91c2.01,0,3.88-0.99,5.02-2.64
	c1.14-1.65,1.39-3.76,0.68-5.63l-5.51-14.51c16.6-1.9,28.41-2.44,28.54-2.44c3.26-0.14,5.84-2.83,5.84-6.09v-22.87
	c0-3.37-2.73-6.1-6.1-6.1c-3.37,0-6.1,2.73-6.1,6.1v17.12c-5.69,0.38-15.16,1.14-26.65,2.53l-2.95-7.76
	c7.81-3.24,13.33-10.94,13.33-19.92c0-9.77-6.53-18.03-15.45-20.67v-55.45c11.46,5.26,22.1,11.35,31.72,18.22v4.28v0.01v33.04
	c0,3.37,2.73,6.1,6.1,6.1s6.1-2.73,6.1-6.1V223l74.47-33.3c2.2-0.98,3.61-3.16,3.61-5.57C418.78,181.73,417.36,179.54,415.17,178.56
	z M284.06,322.8l6.61-17.39l6.61,17.39H284.06z M300.03,272.79c0,5.16-4.19,9.35-9.35,9.35c-5.16,0-9.35-4.19-9.35-9.35
	c0-5.16,4.19-9.35,9.35-9.35C295.83,263.43,300.03,267.63,300.03,272.79z M340.35,209.79c-0.4-1.15-1.13-2.16-2.13-2.91
	c-12.33-9.14-26.27-17.04-41.45-23.56v-44.34l100.96,45.14L340.35,209.79z"/>
</svg>
